<svg xmlns="http://www.w3.org/2000/svg" viewBox="0 0 1600 1120" font-family="Inter, Arial, sans-serif">
<rect width="1600" height="1120" fill="#f8fafc"/>
<defs>
<marker id="arrow" viewBox="0 0 10 10" refX="9" refY="5" markerWidth="7" markerHeight="7" orient="auto"><path d="M0 0 L10 5 L0 10 Z" fill="#475569"/></marker>
<marker id="blue-arrow" viewBox="0 0 10 10" refX="9" refY="5" markerWidth="7" markerHeight="7" orient="auto"><path d="M0 0 L10 5 L0 10 Z" fill="#2563eb"/></marker>
<marker id="green-arrow" viewBox="0 0 10 10" refX="9" refY="5" markerWidth="7" markerHeight="7" orient="auto"><path d="M0 0 L10 5 L0 10 Z" fill="#059669"/></marker>
<filter id="shadow" x="-10%" y="-10%" width="120%" height="130%"><feDropShadow dx="0" dy="3" stdDeviation="4" flood-color="#0f172a" flood-opacity="0.10"/></filter>
</defs>
<text x="60" y="58" font-size="30" font-weight="700" fill="#0f172a">Search-R1 training and search topology</text>
<text x="60" y="88" font-size="15" fill="#64748b">Official code path: data → Ray/veRL → multi-turn agent loop → retriever → reward → PPO/GRPO update</text>
<rect x="50" y="115" width="1500" height="125" rx="18" fill="#eff6ff" stroke="#bfdbfe"/>
<text x="75" y="145" font-size="15" font-weight="700" fill="#1d4ed8">DATA LAYER</text>
<rect x="105" y="165" width="270" height="52" rx="10" fill="#ffffff" stroke="#60a5fa" filter="url(#shadow)"/>
<text x="240" y="187" text-anchor="middle" font-size="15" font-weight="700" fill="#1e293b">Raw QA datasets</text>
<text x="240" y="207" text-anchor="middle" font-size="12" fill="#64748b">NQ / HotpotQA / TriviaQA</text>
<rect x="520" y="165" width="350" height="52" rx="10" fill="#ffffff" stroke="#60a5fa" filter="url(#shadow)"/>
<text x="695" y="187" text-anchor="middle" font-size="14" font-weight="700" fill="#1e293b">scripts/data_process/nq_search.py</text>
<text x="695" y="207" text-anchor="middle" font-size="12" fill="#64748b">prompt + ground truth + data_source</text>
<rect x="1030" y="165" width="300" height="52" rx="10" fill="#ffffff" stroke="#60a5fa" filter="url(#shadow)"/>
<text x="1180" y="187" text-anchor="middle" font-size="15" font-weight="700" fill="#1e293b">Parquet dataset</text>
<text x="1180" y="207" text-anchor="middle" font-size="12" fill="#64748b">train.parquet / test.parquet</text>
<path d="M375 191 H510" stroke="#2563eb" stroke-width="2.2" fill="none" marker-end="url(#blue-arrow)"/>
<path d="M870 191 H1020" stroke="#2563eb" stroke-width="2.2" fill="none" marker-end="url(#blue-arrow)"/>
<rect x="50" y="270" width="1500" height="120" rx="18" fill="#f5f3ff" stroke="#ddd6fe"/>
<text x="75" y="300" font-size="15" font-weight="700" fill="#6d28d9">TRAINING ORCHESTRATION</text>
<rect x="105" y="320" width="275" height="48" rx="10" fill="#ffffff" stroke="#a78bfa" filter="url(#shadow)"/>
<text x="242" y="340" text-anchor="middle" font-size="14" font-weight="700" fill="#1e293b">train_ppo.sh / train_grpo.sh</text>
<text x="242" y="358" text-anchor="middle" font-size="12" fill="#64748b">Hydra overrides</text>
<rect x="520" y="320" width="300" height="48" rx="10" fill="#ffffff" stroke="#a78bfa" filter="url(#shadow)"/>
<text x="670" y="341" text-anchor="middle" font-size="14" font-weight="700" fill="#1e293b">verl.trainer.main_ppo</text>
<text x="670" y="359" text-anchor="middle" font-size="12" fill="#64748b">Ray initialization + workers</text>
<rect x="1000" y="320" width="330" height="48" rx="10" fill="#ffffff" stroke="#a78bfa" filter="url(#shadow)"/>
<text x="1165" y="341" text-anchor="middle" font-size="14" font-weight="700" fill="#1e293b">RayPPOTrainer.fit()</text>
<text x="1165" y="359" text-anchor="middle" font-size="12" fill="#64748b">rollout + reward + optimization</text>
<path d="M380 344 H510" stroke="#7c3aed" stroke-width="2.2" fill="none" marker-end="url(#arrow)"/>
<path d="M820 344 H990" stroke="#7c3aed" stroke-width="2.2" fill="none" marker-end="url(#arrow)"/>
<path d="M1180 217 V310" stroke="#7c3aed" stroke-width="2" fill="none" marker-end="url(#arrow)"/>
<rect x="50" y="420" width="930" height="405" rx="18" fill="#ffffff" stroke="#cbd5e1"/>
<text x="75" y="452" font-size="15" font-weight="700" fill="#0f172a">SEARCH-R1 AGENT LOOP</text>
<rect x="100" y="485" width="280" height="58" rx="11" fill="#ecfeff" stroke="#06b6d4" filter="url(#shadow)"/>
<text x="240" y="507" text-anchor="middle" font-size="14" font-weight="700" fill="#164e63">LLMGenerationManager</text>
<text x="240" y="528" text-anchor="middle" font-size="12" fill="#64748b">run_llm_loop(max_turns)</text>
<rect x="465" y="485" width="190" height="58" rx="11" fill="#ecfeff" stroke="#06b6d4" filter="url(#shadow)"/>
<text x="560" y="508" text-anchor="middle" font-size="15" font-weight="700" fill="#164e63">vLLM rollout</text>
<text x="560" y="528" text-anchor="middle" font-size="12" fill="#64748b">generate tokens</text>
<rect x="740" y="485" width="190" height="58" rx="11" fill="#ecfeff" stroke="#06b6d4" filter="url(#shadow)"/>
<text x="835" y="507" text-anchor="middle" font-size="14" font-weight="700" fill="#164e63">Action parser</text>
<text x="835" y="528" text-anchor="middle" font-size="12" fill="#64748b">search | answer | invalid</text>
<path d="M380 514 H455" stroke="#0891b2" stroke-width="2.4" fill="none" marker-end="url(#blue-arrow)"/>
<path d="M655 514 H730" stroke="#0891b2" stroke-width="2.4" fill="none" marker-end="url(#blue-arrow)"/>
<rect x="720" y="600" width="220" height="54" rx="10" fill="#fff7ed" stroke="#f97316"/>
<text x="830" y="623" text-anchor="middle" font-size="14" font-weight="700" fill="#9a3412">&lt;search&gt; query &lt;/search&gt;</text>
<text x="830" y="643" text-anchor="middle" font-size="12" fill="#64748b">environment action</text>
<rect x="720" y="715" width="220" height="54" rx="10" fill="#ecfdf5" stroke="#10b981"/>
<text x="830" y="738" text-anchor="middle" font-size="14" font-weight="700" fill="#065f46">&lt;answer&gt; final &lt;/answer&gt;</text>
<text x="830" y="758" text-anchor="middle" font-size="12" fill="#64748b">done = true</text>
<rect x="390" y="600" width="245" height="54" rx="10" fill="#fef2f2" stroke="#ef4444"/>
<text x="512" y="623" text-anchor="middle" font-size="14" font-weight="700" fill="#991b1b">Invalid action</text>
<text x="512" y="643" text-anchor="middle" font-size="12" fill="#64748b">return format correction</text>
<rect x="100" y="700" width="410" height="72" rx="11" fill="#eff6ff" stroke="#3b82f6" filter="url(#shadow)"/>
<text x="305" y="724" text-anchor="middle" font-size="14" font-weight="700" fill="#1e40af">TensorHelper + rolling context</text>
<text x="305" y="746" text-anchor="middle" font-size="12" fill="#64748b">prompt + response + &lt;information&gt;</text>
<text x="305" y="763" text-anchor="middle" font-size="12" fill="#64748b">padding / position / truncation / info_mask</text>
<path d="M835 543 V590" stroke="#f97316" stroke-width="2.2" fill="none" marker-end="url(#arrow)"/>
<path d="M865 543 C965 570 970 690 875 705" stroke="#10b981" stroke-width="2.2" fill="none" marker-end="url(#green-arrow)"/>
<path d="M795 543 C700 560 650 580 625 595" stroke="#ef4444" stroke-width="1.8" fill="none" marker-end="url(#arrow)"/>
<path d="M512 654 C500 680 470 692 450 700" stroke="#ef4444" stroke-width="1.8" fill="none" marker-end="url(#arrow)"/>
<path d="M305 700 C250 645 230 595 240 553" stroke="#2563eb" stroke-width="2.2" fill="none" marker-end="url(#blue-arrow)"/>
<rect x="1010" y="420" width="540" height="405" rx="18" fill="#ffffff" stroke="#cbd5e1"/>
<text x="1035" y="452" font-size="15" font-weight="700" fill="#0f172a">INDEPENDENT RETRIEVER SERVICE</text>
<rect x="1080" y="485" width="390" height="58" rx="11" fill="#fff7ed" stroke="#f97316" filter="url(#shadow)"/>
<text x="1275" y="507" text-anchor="middle" font-size="14" font-weight="700" fill="#9a3412">FastAPI POST /retrieve</text>
<text x="1275" y="528" text-anchor="middle" font-size="12" fill="#64748b">queries + topk + return_scores</text>
<rect x="1045" y="600" width="210" height="56" rx="10" fill="#fffbeb" stroke="#f59e0b"/>
<text x="1150" y="623" text-anchor="middle" font-size="14" font-weight="700" fill="#92400e">Dense / BM25</text>
<text x="1150" y="643" text-anchor="middle" font-size="12" fill="#64748b">E5 / BGE / Pyserini</text>
<rect x="1300" y="600" width="210" height="56" rx="10" fill="#fffbeb" stroke="#f59e0b"/>
<text x="1405" y="623" text-anchor="middle" font-size="14" font-weight="700" fill="#92400e">Online search</text>
<text x="1405" y="643" text-anchor="middle" font-size="12" fill="#64748b">Google / Bing / SERP</text>
<rect x="1045" y="715" width="210" height="56" rx="10" fill="#f1f5f9" stroke="#64748b"/>
<text x="1150" y="738" text-anchor="middle" font-size="14" font-weight="700" fill="#334155">FAISS index</text>
<text x="1150" y="758" text-anchor="middle" font-size="12" fill="#64748b">Flat GPU / ANN CPU</text>
<rect x="1300" y="715" width="210" height="56" rx="10" fill="#f1f5f9" stroke="#64748b"/>
<text x="1405" y="738" text-anchor="middle" font-size="14" font-weight="700" fill="#334155">Corpus</text>
<text x="1405" y="758" text-anchor="middle" font-size="12" fill="#64748b">Wikipedia JSONL</text>
<path d="M940 627 H1070 V514" stroke="#f97316" stroke-width="2.2" fill="none" marker-end="url(#arrow)"/>
<path d="M1275 543 V575 H1150 V590" stroke="#f59e0b" stroke-width="2" fill="none" marker-end="url(#arrow)"/>
<path d="M1275 543 V575 H1405 V590" stroke="#f59e0b" stroke-width="2" fill="none" marker-end="url(#arrow)"/>
<path d="M1150 656 V705" stroke="#64748b" stroke-width="2" fill="none" marker-end="url(#arrow)"/>
<path d="M1405 656 V705" stroke="#64748b" stroke-width="2" fill="none" marker-end="url(#arrow)"/>
<path d="M1300 743 H1265 C1000 810 720 830 510 736" stroke="#2563eb" stroke-width="2.2" fill="none" marker-end="url(#blue-arrow)"/>
<text x="1030" y="802" font-size="12" fill="#2563eb">Top-K docs → &lt;information&gt; observation</text>
<rect x="50" y="855" width="1500" height="205" rx="18" fill="#ecfdf5" stroke="#a7f3d0"/>
<text x="75" y="886" font-size="15" font-weight="700" fill="#047857">REWARD AND POLICY UPDATE</text>
<rect x="100" y="920" width="250" height="62" rx="10" fill="#ffffff" stroke="#34d399" filter="url(#shadow)"/>
<text x="225" y="943" text-anchor="middle" font-size="14" font-weight="700" fill="#065f46">Complete trajectory</text>
<text x="225" y="965" text-anchor="middle" font-size="12" fill="#64748b">state tokens masked</text>
<rect x="430" y="920" width="240" height="62" rx="10" fill="#ffffff" stroke="#34d399" filter="url(#shadow)"/>
<text x="550" y="943" text-anchor="middle" font-size="14" font-weight="700" fill="#065f46">RewardManager</text>
<text x="550" y="965" text-anchor="middle" font-size="12" fill="#64748b">last &lt;answer&gt; + QA EM</text>
<rect x="750" y="920" width="270" height="62" rx="10" fill="#ffffff" stroke="#34d399" filter="url(#shadow)"/>
<text x="885" y="943" text-anchor="middle" font-size="14" font-weight="700" fill="#065f46">GAE or GRPO advantage</text>
<text x="885" y="965" text-anchor="middle" font-size="12" fill="#64748b">critic value or group-relative</text>
<rect x="1100" y="920" width="260" height="62" rx="10" fill="#ffffff" stroke="#34d399" filter="url(#shadow)"/>
<text x="1230" y="943" text-anchor="middle" font-size="14" font-weight="700" fill="#065f46">Actor policy update</text>
<text x="1230" y="965" text-anchor="middle" font-size="12" fill="#64748b">PPO clipped objective + KL</text>
<path d="M350 951 H420" stroke="#059669" stroke-width="2.4" fill="none" marker-end="url(#green-arrow)"/>
<path d="M670 951 H740" stroke="#059669" stroke-width="2.4" fill="none" marker-end="url(#green-arrow)"/>
<path d="M1020 951 H1090" stroke="#059669" stroke-width="2.4" fill="none" marker-end="url(#green-arrow)"/>
<path d="M830 769 C720 835 410 835 225 910" stroke="#059669" stroke-width="2.2" fill="none" marker-end="url(#green-arrow)"/>
<path d="M1230 920 C1260 830 1170 785 930 520" stroke="#059669" stroke-width="2" fill="none" stroke-dasharray="7 6" marker-end="url(#green-arrow)"/>
<rect x="1380" y="920" width="135" height="62" rx="10" fill="#ffffff" stroke="#34d399"/>
<text x="1448" y="943" text-anchor="middle" font-size="13" font-weight="700" fill="#065f46">Checkpoint</text>
<text x="1448" y="963" text-anchor="middle" font-size="11" fill="#64748b">W&amp;B / validation</text>
<path d="M1360 951 H1370" stroke="#059669" stroke-width="2.2" fill="none" marker-end="url(#green-arrow)"/>
<text x="75" y="1028" font-size="12" fill="#475569">PPO: Actor + Critic + Reference Policy</text>
<text x="380" y="1028" font-size="12" fill="#475569">GRPO: grouped rollouts, no Critic</text>
<text x="720" y="1028" font-size="12" fill="#475569">Environment action space: search(query) | answer(answer)</text>
<text x="1515" y="1028" text-anchor="end" font-size="12" fill="#64748b">Search-R1 official-code topology</text>
</svg>
